<?xml version="1.0" standalone="no"?><!DOCTYPE svg PUBLIC "-//W3C//DTD SVG 1.1//EN" "http://www.w3.org/Graphics/SVG/1.1/DTD/svg11.dtd"><svg class="icon" width="200px" height="200.00px" viewBox="0 0 1024 1024" version="1.1" xmlns="http://www.w3.org/2000/svg"><path d="M431.27 525.19c31.52 0 61.18-7.79 87.37-21.36 61.2-31.71 103.09-95.54 103.09-169.28 0-73.73-41.9-137.56-103.09-169.28-26.19-13.57-55.85-21.36-87.37-21.36-105.19 0-190.46 85.35-190.46 190.64s85.28 190.64 190.46 190.64zM796.32 766.76c-48.6-93.07-151.75-163.5-277.67-186.13-5.09-0.92-10.25-1.67-15.41-2.42-23.35-3.44-47.36-5.36-71.96-5.36-164.56 0-305.59 80.07-365.05 193.91-4.24 8.12-2.33 18.22 4.84 23.91C170.08 869.12 295.2 916 431.27 916c23.69 0 46.92-1.87 69.86-4.67 5.82-0.71 11.74-1.13 17.51-2.01 102.06-15.43 195.44-57.34 272.83-118.66 7.18-5.68 9.09-15.78 4.85-23.9z" fill="#FFA8A6" /><path d="M657.62 334.55c0 58.49-22.27 113.26-60.8 154.48 29.97-0.65 58.24-8.14 83.27-21.11 61.2-31.71 103.09-95.54 103.09-169.28 0-73.73-41.9-137.56-103.09-169.28-26.18-13.57-55.84-21.36-87.36-21.36-27.58 0-53.72 5.99-77.38 16.54 6.67 2.7 13.32 5.47 19.8 8.83 75.54 39.18 122.47 116.26 122.47 201.18zM957.77 730.85c-48.6-93.07-151.75-163.5-277.67-186.13-5.09-0.92-10.25-1.67-15.41-2.42-23.35-3.44-47.36-5.36-71.96-5.36-27.18 0-53.62 2.38-79.25 6.54 3.85 0.57 7.7 1.12 11.49 1.81 135.56 24.37 248.88 100.95 303.14 204.84 12.28 23.51 6.22 52.41-14.38 68.72-16 12.68-32.76 24.25-49.88 35.23 69.44-21.39 133.44-55.23 189.08-99.31 7.17-5.7 9.08-15.8 4.84-23.92z" fill="#FF8080" /></svg>