<?xml version="1.0" standalone="no"?><!DOCTYPE svg PUBLIC "-//W3C//DTD SVG 1.1//EN" "http://www.w3.org/Graphics/SVG/1.1/DTD/svg11.dtd"><svg t="1556264808397" class="icon" style="" viewBox="0 0 3103 1024" version="1.1" xmlns="http://www.w3.org/2000/svg" p-id="8088" xmlns:xlink="http://www.w3.org/1999/xlink" width="606.0546875" height="200"><defs><style type="text/css"></style></defs><path d="M0 996.77958h2858.387021V693.207445H0z" fill="#A1B7FE" fill-opacity=".1" p-id="8089"></path><path d="M772.564844 511.262536v-113.329328c28.558145-31.656636 28.558145-31.656636 60.926519-69.6446l137.714229-160.815712c30.46183-34.823729 42.521365-50.650618 59.019975-75.344224h130.099485c-3.807372 37.35626-5.076495 62.681569-5.076495 105.102891v205.766706h18.405154c19.671419 0 40.61768-1.897969 62.827347-5.065061v115.230156c-19.036858-2.532531-42.521365-3.798796-62.192785-3.798797h-19.039716v31.656636c0 35.455433 1.269124 53.817711 5.076495 77.876755H1029.591005c3.17281-21.526513 5.076495-48.118087 5.076495-79.14302v-31.022074h-179.601031c-41.249383 0-59.019975 0.631704-82.501625 2.532531z m262.737218-106.998001V330.821139c0-28.492402 1.269124-63.313273 3.807372-91.171113-12.691238 17.727716-22.209667 30.390371-39.345698 51.916884l-92.657473 112.697625h128.198658z m460.108842 226.029812c-62.192785 0-114.867141-20.260247-153.581134-58.882773-20.943402-20.894809-36.80745-44.950994-46.328737-70.276303-16.49861-44.953853-24.750773-93.703643-24.750773-144.988823 0-66.480365 15.866906-135.490403 39.983117-175.379194C1349.444513 116.187716 1415.447527 80.732283 1495.413763 80.732283c61.555365 0 115.501703 20.894809 154.212838 58.882773 20.943402 20.894809 36.80745 44.950994 46.328737 70.276303 16.49861 44.953853 24.750773 93.703643 24.750773 145.620527 0 66.480365-15.864048 136.124965-39.983118 176.013756-38.076574 63.313273-104.71415 98.768705-185.30923 98.768705z m0-442.564063c-59.654537 0-94.561159 60.149038-94.561159 163.351102 0 113.332187 32.368375 171.580398 95.195721 171.580398 62.195643 0 93.926598-56.981945 93.926598-169.682429 0-108.264267-33.002937-165.246212-94.56116-165.246212z m258.295285 323.535111v-113.332187c28.558145-31.656636 28.558145-31.656636 60.923661-69.6446l137.717087-160.815712c30.46183-34.823729 42.518507-50.650618 59.019975-75.344224h130.099485c-3.807372 37.35626-5.076495 62.681569-5.076495 105.102891v205.766706h18.405154c19.671419 0 40.61768-1.897969 62.827347-5.065061v115.230156c-19.036858-2.532531-42.521365-3.798796-62.192785-3.798797h-19.039716v31.656636c0 35.455433 1.269124 53.817711 5.076495 77.876755H2010.73235c3.17281-21.526513 5.076495-48.118087 5.076495-79.14302v-31.022074h-179.601031c-41.249383 0-59.019975 0.631704-82.501625 2.532531z m262.737218-107.00086V330.821139c0-28.492402 1.269124-63.313273 3.807372-91.171113-12.691238 17.727716-22.209667 30.390371-39.345698 51.916884l-92.657473 112.697625h128.198658z m571.434442 226.504304l-289.551747-0.900392V341.903105c159.91532 0 289.551747 129.330579 289.551747 288.868593z m-2320.372841 0c0-232.386865 188.830763-420.77172 421.76358-420.77172V629.456839l-421.76358 1.312z" fill="#A1B7FE" fill-opacity=".2" p-id="8090"></path><path d="M1170.097877 858.956733c47.306305-9.198289 83.170487-29.432811 80.106297-45.196815-3.064191-15.764004-43.896249-21.089179-91.202555-11.893749-47.306305 9.195431-83.170487 29.429953-80.106296 45.191099M1277.167338 687.373477c47.306305-9.192573 83.170487-29.427094 80.106297-45.191099-3.064191-15.766863-43.896249-21.092038-91.202555-11.896606-47.306305 9.195431-83.170487 29.429953-80.106296 45.193957M2038.018513 920.635009c27.949308-10.198725 45.96858-23.884682 43.759046-35.249629-3.064191-15.764004-43.896249-21.089179-91.202554-11.893749-47.306305 9.195431-83.170487 29.427094-80.106297 45.191099M2352.675473 862.478266c27.949308-10.201583 45.965722-23.88754 43.759046-35.249629-3.064191-15.764004-43.899108-21.092038-91.202554-11.896606-47.306305 9.195431-83.170487 29.429953-80.106296 45.193957M2363.923226 774.611449c47.306305-9.195431 83.170487-29.429953 80.106296-45.193957-3.064191-15.764004-43.899108-21.089179-91.202555-11.893748-47.306305 9.192573-83.170487 29.427094-80.106296 45.191098" fill="#0E1D80" fill-opacity=".1" p-id="8091"></path><path d="M1302.046739 690.303324c0-99.280356-80.500754-179.761101-179.803977-179.761101s-179.803977 80.480745-179.803977 179.761101" fill="#F49130" p-id="8092"></path><path d="M743.376365 384.406479L973.350819 614.380934l-35.51626 35.51626L707.860105 419.922739l35.51626-35.51626z m-68.732412 66.088702l229.974454 229.974455L869.102147 715.985896 639.127693 486.011442 674.643953 450.495181z m-71.376121 68.732412l229.974454 229.974454L797.726026 784.718308 567.751571 554.743853 603.267832 519.227593z m-68.732412 68.732412l229.974454 229.974454-35.51626 35.51626L499.01916 623.476265 534.53542 587.960005z m-58.153531 79.307251l229.974454 229.974454-35.51626 35.51626L440.865629 702.783516 476.379868 667.269277z" fill="#BBCBFF" fill-opacity=".2" p-id="8093"></path><path d="M2362.359688 774.894429c0-145.997834-118.385815-264.352207-264.41795-264.352206-146.034993 0-264.41795 118.354373-264.41795 264.352206" fill="#5266D4" p-id="8094"></path><path d="M1339.062851 719.381695c0-32.119695-26.63445-58.156742-59.491609-58.156742-32.860017 0-59.494467 26.037047-59.494468 58.156742m573.784036-42.295553c0-42.341287-34.920914-76.66194-78.002523-76.66194-43.078751 0-78.005382 34.320653-78.005382 76.66194" fill="#0E1D80" p-id="8095"></path><path d="M1947.224707 859.488393c0-93.440672-76.947779-169.187928-171.874811-169.187927-94.918458 0-171.869095 75.747256-171.869095 169.187927" fill="#A1B7FE" p-id="8096"></path><path d="M2037.126696 920.289144c0-49.638749-40.251806-89.879121-89.901989-89.879122s-89.901989 40.240372-89.901988 89.879122" fill="#0E1D80" p-id="8097"></path><path d="M831.856366 915.792901l-171.023012 0.53166c0-139.429261 113.054923-207.518898 252.518484-207.518898v155.922154" fill="#0E1D80" fill-opacity=".1" p-id="8098"></path><path d="M580.186822 916.324561c0-139.429261 113.057782-252.458458 252.518485-252.458459v251.672402" fill="#A1B7FE" p-id="8099"></path><path d="M2345.172207 863.452976c0-89.787653-72.805976-162.576479-162.616496-162.576478v162.070544" fill="#F49130" p-id="8100"></path><path d="M2121.740668 731.952881a12.571186 10.576032 90 1 0 21.152064 0 12.571186 10.576032 90 1 0-21.152064 0Z" fill="#BBCBFF" fill-opacity=".6" p-id="8101"></path><path d="M2082.07769 731.952881a12.571186 10.576032 90 1 0 21.152064 0 12.571186 10.576032 90 1 0-21.152064 0Z" fill="#BBCBFF" fill-opacity=".6" p-id="8102"></path><path d="M2042.414712 731.952881a12.571186 10.576032 90 1 0 21.152064 0 12.571186 10.576032 90 1 0-21.152064 0Z" fill="#BBCBFF" fill-opacity=".6" p-id="8103"></path><path d="M2000.107725 731.952881a12.571186 10.576032 90 1 0 21.152064 0 12.571186 10.576032 90 1 0-21.152064 0Z" fill="#BBCBFF" fill-opacity=".6" p-id="8104"></path><path d="M1960.444747 731.952881a12.571186 10.576032 90 1 0 21.152064 0 12.571186 10.576032 90 1 0-21.152064 0Z" fill="#BBCBFF" fill-opacity=".6" p-id="8105"></path><path d="M2121.740668 694.945345a12.571186 10.576032 90 1 0 21.152064 0 12.571186 10.576032 90 1 0-21.152064 0Z" fill="#BBCBFF" fill-opacity=".6" p-id="8106"></path><path d="M2082.07769 694.945345a12.571186 10.576032 90 1 0 21.152064 0 12.571186 10.576032 90 1 0-21.152064 0Z" fill="#BBCBFF" fill-opacity=".6" p-id="8107"></path><path d="M2042.414712 694.945345a12.571186 10.576032 90 1 0 21.152064 0 12.571186 10.576032 90 1 0-21.152064 0Z" fill="#BBCBFF" fill-opacity=".6" p-id="8108"></path><path d="M2000.107725 694.945345a12.571186 10.576032 90 1 0 21.152064 0 12.571186 10.576032 90 1 0-21.152064 0Z" fill="#BBCBFF" fill-opacity=".6" p-id="8109"></path><path d="M2121.740668 655.290941a12.571186 10.576032 90 1 0 21.152064 0 12.571186 10.576032 90 1 0-21.152064 0Z" fill="#BBCBFF" fill-opacity=".6" p-id="8110"></path><path d="M2082.07769 655.290941a12.571186 10.576032 90 1 0 21.152064 0 12.571186 10.576032 90 1 0-21.152064 0Z" fill="#BBCBFF" fill-opacity=".6" p-id="8111"></path><path d="M2042.414712 655.290941a12.571186 10.576032 90 1 0 21.152064 0 12.571186 10.576032 90 1 0-21.152064 0Z" fill="#BBCBFF" fill-opacity=".6" p-id="8112"></path><path d="M2121.740668 615.639397a12.571186 10.576032 90 1 0 21.152064 0 12.571186 10.576032 90 1 0-21.152064 0Z" fill="#BBCBFF" fill-opacity=".6" p-id="8113"></path><path d="M2082.07769 615.639397a12.571186 10.576032 90 1 0 21.152064 0 12.571186 10.576032 90 1 0-21.152064 0Z" fill="#BBCBFF" fill-opacity=".6" p-id="8114"></path><path d="M2121.740668 575.984993a12.574045 12.571186 0 1 0 25.148089 0 12.574045 12.571186 0 1 0-25.148089 0Z" fill="#BBCBFF" fill-opacity=".6" p-id="8115"></path><path d="M1310.470406 983.193667a163.808443 38.310961 0 1 0 327.616886 0 163.808443 38.310961 0 1 0-327.616886 0Z" fill="#0E1D80" fill-opacity=".1" p-id="8116"></path><path d="M1418.740389 840.305758c12.731256 27.909291 1.149072 148.719018-3.547258 148.719018l-7.303179 1.120488-5.116513-59.488751S1388.795927 853.242818 1388.06418 846.925782l20.351715-12.628353 10.327353 6.008329z" fill="#0E1D80" p-id="8117"></path><path d="M1380.512321 833.742901l14.483447 12.642646c5.153672 1.071895-15.123726 135.476111-23.704603 141.418698l-6.974465-0.485926s-0.19437-54.946774 0.102902-67.99531c0.294414-13.051395-7.377497-58.40828-3.424347-80.292092" fill="#0E1D80" p-id="8118"></path><path d="M1377.105124 746.287692l19.931533 5.805384-0.417325-11.510724-14.609216-12.019518c-0.731747 5.805384-4.904992 17.722-4.904992 17.722z" fill="#FFE4A8" p-id="8119"></path><path d="M1396.827994 740.888199s-8.766673-5.702482-11.164859-8.760956c-6.054064-5.702482 9.286899-25.974163 14.92078-25.871261l13.668807 6.111231 2.92413 7.640469-2.086623 12.834158-4.070343-0.914684-5.948304 10.284476-8.243588-1.323433z" fill="#FFE4A8" p-id="8120"></path><path d="M1417.071091 718.275499c-4.070343 0-16.278514-5.805384-16.381416-8.046359 0.625987 2.035172-4.070343 12.019517-8.243588 12.019517s-11.585043-10.390237-12.313931-3.973158c1.146213 1.22339 4.279005 17.213207 0 15.992676-15.652527-4.176103-9.495562-44.310716 20.451759-40.03171 41.009279 11.510725 20.557519 24.039035 16.487176 24.039034z" fill="#0E1D80" p-id="8121"></path><path d="M1380.129297 726.221815c-3.127075-4.279005-0.311564-12.122419 4.070343-12.022376 2.715468-0.200087 5.322317 1.529237 5.948304 3.973158 3.132792 14.363395-4.067485 17.82776-10.015788 8.049218z" fill="#FFE4A8" p-id="8122"></path><path d="M1407.263965 744.964259c4.381907 1.220531 9.912886 10.89903 10.330211 15.889773 0.417325 5.499537-1.043311 22.001005-1.043311 22.001005l21.392168-7.028773-0.628845 7.031632s-15.129443 11.304921-21.077746 13.240048c-1.983721 0.611695-6.259868 0.305847-8.032067-0.714596-8.558011-4.581994-17.221782-22.103907-15.864048-34.938065-0.417325-1.120488-2.81837-19.657128 14.92078-15.481024z" fill="#5266D4" p-id="8123"></path><path d="M1358.425565 857.521823c11.479282 8.146403 55.618495 8.146403 64.176505-0.408749 5.842543-19.454182-6.46853-100.129297-13.877469-107.058028-0.10576-1.220531-10.435971-6.111231-10.435971-6.111231s-16.904501-6.417079-22.332578-3.258561c-8.869575 9.166847-26.711627 96.870736-17.530487 116.836569z" fill="#5266D4" p-id="8124"></path><path d="M1346.84338 742.620382c-0.523085 3.973158 1.357734 4.787798 5.007895 6.317035 8.869575 3.767354 1.669298 23.936133-13.565905 39.114168-18.050714 19.151193 6.57429 53.78341 26.926005 38.196626 6.46853-4.990744 4.799232-18.742444 4.799232-18.742444l-0.314422-54.595192 3.653018-2.649725 8.869575 4.379049c-5.636739 13.445853-5.322317 24.447784-0.208662 27.603444 2.295285 1.429194 3.755921 1.326292 5.945445 0 1.149072-3.461507 4.487668-16.295664 1.775058-31.985351-4.59057-13.034245-41.426603-19.657128-42.887239-7.63761z" fill="#0E1D80" p-id="8125"></path><path d="M1371.574145 748.019875c-22.329719 16.601512-10.018647 65.394178-4.173245 66.923415 12.313931 2.240975 41.949688-14.160449 41.949688-14.160449l-0.523085-6.517123-30.053081-0.408749s9.183997-35.346814 2.81837-43.190228c-1.566396-1.935128-4.59057-3.258561-10.018647-2.646866z" fill="#7589F2" p-id="8126"></path><path d="M1410.079477 776.437958c1.669298 2.443921 4.80209 2.140932 5.739641 0.305848 0.940409 0-1.7722-30.456114-8.660913-33.51173-3.235694-2.343877-7.617601 0.81464-5.739641 2.138074 6.888713 1.22339 9.704224 32.188296 8.660913 31.070667z" fill="#0E1D80" p-id="8127"></path><path d="M1438.880584 766.253526l-24.522102-3.973158-4.070343 44.004868 24.522102 3.970299 12.313931-3.970299 8.243589-48.080928z" fill="#FFE4A8" p-id="8128"></path><path d="M1440.061098 765.816192l2.715468 0.468776-7.906299 43.84194-2.715467-0.468776z" fill="#F49130" p-id="8129"></path><path d="M1418.117261 793.551122c1.563538 2.443921 0.414466 5.093646-1.463494 6.317035-1.7722 1.220531-7.826264 1.629281-8.975336 0.711738-1.457777-1.426335-3.338596-4.279005-2.503947-6.317035 1.251974-3.055616 10.333069-4.78494 12.939918-0.711738z" fill="#FFE4A8" p-id="8130"></path><path d="M1385.394446 995.227476c1.786492-2.429629-8.975335-8.483693-14.103281-10.981923l-9.37551-1.160505c-1.13478 2.987014-5.899711 6.740077-4.127511 9.415527 2.804078 2.74691 25.816952 5.15653 27.606302 2.726901zM1432.797937 993.255189c1.609272-1.986579-9.549871-6.122665-14.843604-7.791963l-9.432677-0.397316c-0.923259 2.386753-5.410927 5.56528-3.45579 7.554717 2.992731 1.986579 26.119941 2.623999 27.732071 0.634562z" fill="#F49130" p-id="8131"></path><path d="M1592.713257 992.763547c-3.618718 3.327162-28.423801 1.614989-29.870144 0-1.446344-1.614989 1.446344-11.396389 1.446343-11.396389h12.505444s19.534217 8.069227 15.918357 11.396389zM1470.139905 985.300298c4.030326 0-1.655006-21.483637-1.655006-21.483637l-8.163554-7.363205s-9.715657 3.227119-9.715657 6.554282c0 3.330021 15.503891 22.29256 19.534217 22.29256z" fill="#F49130" p-id="8132"></path><path d="M1538.040888 850.447315l26.974599-3.330021c8.680921 20.677572 13.019953 44.782349 15.29237 70.302029l-3.615859 66.165943-11.676511 3.327162-5.065062-61.223791c-0.102902 0-22.838512-44.882393-21.909537-75.241322z" fill="#0E1D80" p-id="8133"></path><path d="M1502.591172 847.117294v66.165943L1459.598173 957.965543l7.33748 10.793269S1519.747211 931.539755 1531.115017 916.613258c4.859258-6.660042 15.400989-69.495964 15.400989-69.495964H1502.591172z" fill="#0E1D80" p-id="8134"></path><path d="M1550.234767 735.059948l5.47667-2.826945s9.404093 8.675205 8.578019 10.390237c-0.826074 1.715032-5.373768 5.042195-7.646185 1.009011-2.275276-4.136086-6.408504-8.575161-6.408504-8.575161z" fill="#FFE4A8" p-id="8135"></path><path d="M1556.125903 742.926229l9.612756-1.412043s9.506995 14.220475 7.957749 18.559507c-1.757908 4.739206-17.779167 17.144605-17.779167 17.144605l-9.815701-13.614497 14.263351-9.078237-4.238988-11.599335z" fill="#7589F2" p-id="8136"></path><path d="M1520.161678 751.901564l21.289266 5.851119-1.757908-13.314367-17.776309-10.690368z" fill="#FFE4A8" p-id="8137"></path><path d="M1553.956387 785.690557c1.652148 2.421054 4.753498 2.118065 5.682474 0.302989 0.931834 0-1.75505-30.155983-8.575161-33.183015-3.204252-2.32101-7.546142 0.806065-5.688191 2.118065 6.82297 1.209098 9.612756 31.770972 8.580878 30.761961z" fill="#0E1D80" p-id="8138"></path><path d="M1521.090653 750.289434c5.065062-1.815076 23.770346 2.421054 26.251427 4.539119 2.583982 2.115206 10.953339 23.904691 13.537321 32.376949 6.2027 19.768605 18.602383 74.032224 14.366253 79.377408-4.753498 6.154107-65.83437 7.56615-73.79212 3.229977-7.131676-3.935999-2.172374-68.789942 3.410056-90.776655 2.172374-8.069227 11.061958-26.931723 16.227063-28.746798z" fill="#5266D4" p-id="8139"></path><path d="M1468.899365 924.982615c-0.723172-0.60312-0.723172-1.715032-0.102902-2.421054l113.992474-117.908464c0.62027-0.706022 1.757908-0.706022 2.48108-0.100044s0.723172 1.715032 0.102902 2.421054l-113.992474 117.908465c-0.62027 0.706022-1.757908 0.706022-2.48108 0.100043z" fill="#303F9F" p-id="8140"></path><path d="M1538.040888 818.976474h27.077501l0.826073 7.463249-27.903574 4.136086z" fill="#FFE4A8" p-id="8141"></path><path d="M1491.429171 754.928596c-0.414466 4.336173 1.549246 5.24514 5.685332 6.860129 9.918603 3.933141 2.478222 26.425788-14.057547 43.47035-19.428457 21.58368 8.578019 59.20577 30.593316 41.455187 7.025915-5.648173 4.859258-20.780474 4.859258-20.780474l-1.657865-60.311966 4.030326-3.02989 9.92432 4.64202c-5.891136 15.029399-5.373768 27.13181 0.411608 30.461831 2.583982 1.512087 4.136086 1.412043 6.614307-0.102902 1.24054-3.933141 4.547694-18.053572 1.24054-35.401123-5.579571-14.120432-46.403055-20.577528-47.643595-7.263162z" fill="#0E1D80" p-id="8142"></path><path d="M1518.506671 759.367671c-7.337479 6.151249-10.024363 18.356561-12.711247 30.661918-3.10135 35.100993 7.646185 45.488371 12.711247 45.488371 5.065062 0 25.425353-3.327162 25.425353-3.327163l-0.828932-14.020388-17.776309-0.808924s9.30405-24.810799 7.649044-44.682305c-0.723172-4.839249-5.47667-17.247507-14.469156-13.311509z" fill="#7589F2" p-id="8143"></path><path d="M1573.384844 814.540257c2.066614 0.60312 2.275276 4.030326 2.275276 4.030326-0.517368 2.623999-4.547694 8.375074-6.71721 8.575161-2.172374 0.200087-8.375074-2.218108-5.891135-6.554281 2.37532-4.339031 8.369357-6.660042 10.333069-6.054064z m-27.903574-66.268844l6.096939-10.387379 4.859258-0.808923-1.552104-20.677572-15.295229-9.884302-17.776309 9.884302-0.828932 21.383593c7.754804 9.581313 24.496377 10.49028 24.496377 10.490281z" fill="#FFE4A8" p-id="8144"></path><path d="M1532.046851 697.437858c8.783823-1.817934 17.776309-0.908967 22.941414 3.730195 5.065062 4.742064 7.234578 13.314367 0 17.853485-7.646185 1.109054-8.472259 2.824086-16.950235-0.908967 0 0-0.826074 3.733053-3.407197 7.466107-2.583982 3.730195-9.30405 1.915119-9.30405 1.91512s0 11.296346-7.646185 11.296345c-13.643081-2.018021-10.024363-35.403982 14.366253-41.352285z" fill="#0E1D80" p-id="8145"></path><path d="M1532.872925 729.711906c0-2.521097-0.311564-5.24514-2.275276-6.454238-3.410056-2.118065-5.994038 0.302989-6.614308 3.027032-0.62027 3.327162 1.449202 6.354194 4.030326 7.46039 2.686884 1.111913 4.859258-0.906109 4.859258-4.030326z" fill="#FFDB73" p-id="8146"></path></svg>