<?xml version="1.0" standalone="no"?><!DOCTYPE svg PUBLIC "-//W3C//DTD SVG 1.1//EN" "http://www.w3.org/Graphics/SVG/1.1/DTD/svg11.dtd"><svg class="icon" width="200px" height="200.00px" viewBox="0 0 1024 1024" version="1.1" xmlns="http://www.w3.org/2000/svg"><path d="M572.27 118H97.15C78.92 118 64 132.91 64 151.13v472.04c0 18.22 14.92 33.13 33.15 33.13h95.28c9.3 0 18.16 3.9 24.44 10.75l66.94 100.14c6.57 7.17 17.87 7.17 24.44 0l116.67-100.14a33.162 33.162 0 0 1 24.44-10.75h343.9c18.23 0 33.15-14.91 33.15-33.13V151.13c0-18.22-14.92-33.13-33.15-33.13h-74.58M258.75 440.97c-27.46 0-49.72-22.25-49.72-49.69 0-27.44 22.26-49.69 49.72-49.69s49.72 22.25 49.72 49.69c0 27.45-22.26 49.69-49.72 49.69z m186.46 0c-27.46 0-49.72-22.25-49.72-49.69 0-27.44 22.26-49.69 49.72-49.69 27.46 0 49.72 22.25 49.72 49.69 0 27.45-22.26 49.69-49.72 49.69z m186.46 0c-27.46 0-49.72-22.25-49.72-49.69 0-27.44 22.26-49.69 49.72-49.69 27.46 0 49.72 22.25 49.72 49.69 0 27.45-22.26 49.69-49.72 49.69z" fill="#FFBB88" /><path d="M926.85 251.45h-49.72V673.8c0 18.22-14.92 33.13-33.15 33.13H483.51c-9.29 0-18.16 3.9-24.44 10.75l-83.96 72.06h199.52c9.29 0 18.16 3.9 24.44 10.75l116.67 100.14c6.57 7.17 17.87 7.17 24.44 0l66.94-100.14a33.162 33.162 0 0 1 24.44-10.75h95.28c18.23 0 33.15-14.91 33.15-33.13V284.58c0.01-18.22-14.91-33.13-33.14-33.13z" fill="#FF9852" /></svg>